HIERARCHY
ROOT root
{
	OFFSET	0	13.1	24.9
	CHANNELS 6  Xposition Yposition Zposition Xrotation Yrotation Zrotation
	JOINT spine_1
	{
		OFFSET	0	9.99999	0
		CHANNELS 3  Xrotation Yrotation Zrotation
		JOINT spine_2
		{
			OFFSET	0	112	-10
			CHANNELS 3  Xrotation Yrotation Zrotation
			JOINT spine_3
			{
				OFFSET	0	206.5	19.3
				CHANNELS 3  Xrotation Yrotation Zrotation
				JOINT spine_4
				{
					OFFSET	0	110.4	14.6
					CHANNELS 3  Xrotation Yrotation Zrotation
					JOINT neck_1
					{
						OFFSET	0	71.8	-50.3
						CHANNELS 3  Xrotation Yrotation Zrotation
						JOINT neck_2
						{
							OFFSET	0	86.2	-25.8
							CHANNELS 3  Xrotation Yrotation Zrotation
							JOINT head_ee
							{
								OFFSET	0	179.8	-8.7
								CHANNELS 3  Xrotation Yrotation Zrotation
								End Site
								{
									OFFSET	1	0	0
								}
							}
						}
					}
					JOINT left_clavicle
					{
						OFFSET	-43.2	22.4	-70.8
						CHANNELS 3  Xrotation Yrotation Zrotation
						JOINT left_shoulder
						{
							OFFSET	-93.9	-5.79999	48.7
							CHANNELS 3  Xrotation Yrotation Zrotation
							JOINT left_elbow
							{
								OFFSET	-291.4	-30.8	15.2
								CHANNELS 3  Xrotation Yrotation Zrotation
								JOINT left_lowarm_twist
								{
									OFFSET	-110.7	-3.89999	13.6
									CHANNELS 3  Xrotation Yrotation Zrotation
									JOINT left_hand
									{
										OFFSET	-110.7	-3.89999	13.6
										CHANNELS 3  Xrotation Yrotation Zrotation
										JOINT left_ee
										{
											OFFSET	-80.8	-5.10001	12.1
											CHANNELS 3  Xrotation Yrotation Zrotation
											End Site
											{
												OFFSET	1	0	0
											}
										}
									}
								}
							}
						}
					}
					JOINT right_clavicle
					{
						OFFSET	43.2	22.4	-70.8
						CHANNELS 3  Xrotation Yrotation Zrotation
						JOINT right_shoulder
						{
							OFFSET	93.9	-5.79999	48.7
							CHANNELS 3  Xrotation Yrotation Zrotation
							JOINT right_elbow
							{
								OFFSET	291.4	-30.8	15.2
								CHANNELS 3  Xrotation Yrotation Zrotation
								JOINT right_lowarm_twist
								{
									OFFSET	110.7	-3.89999	13.6
									CHANNELS 3  Xrotation Yrotation Zrotation
									JOINT right_hand
									{
										OFFSET	110.7	-3.89999	13.6
										CHANNELS 3  Xrotation Yrotation Zrotation
										JOINT right_ee
										{
											OFFSET	80.8	-5.10001	12.1
											CHANNELS 3  Xrotation Yrotation Zrotation
											End Site
											{
												OFFSET	1	0	0
											}
										}
									}
								}
							}
						}
					}
				}
			}
		}
	}
	JOINT left_hip
	{
		OFFSET	-82.8	-127.5	0.300001
		CHANNELS 3  Xrotation Yrotation Zrotation
		JOINT left_knee
		{
			OFFSET	-28.2	-396.7	2.2
			CHANNELS 3  Xrotation Yrotation Zrotation
			JOINT left_ankle
			{
				OFFSET	-11.7	-411.3	35.4
				CHANNELS 3  Xrotation Yrotation Zrotation
				JOINT left_toes
				{
					OFFSET	0	-60	-88.6
					CHANNELS 3  Xrotation Yrotation Zrotation
					JOINT left_foot_ee
					{
						OFFSET	-22.5	-16.5	-42.2
						CHANNELS 3  Xrotation Yrotation Zrotation
						End Site
						{
							OFFSET	1	0	0
						}
					}
				}
			}
		}
	}
	JOINT right_hip
	{
		OFFSET	82.8	-127.5	0.300001
		CHANNELS 3  Xrotation Yrotation Zrotation
		JOINT right_knee
		{
			OFFSET	28.2	-396.7	2.2
			CHANNELS 3  Xrotation Yrotation Zrotation
			JOINT right_ankle
			{
				OFFSET	11.7	-411.3	35.4
				CHANNELS 3  Xrotation Yrotation Zrotation
				JOINT right_toes
				{
					OFFSET	0	-60	-88.6
					CHANNELS 3  Xrotation Yrotation Zrotation
					JOINT right_foot_ee
					{
						OFFSET	22.5	-16.5	-42.2
						CHANNELS 3  Xrotation Yrotation Zrotation
						End Site
						{
							OFFSET	1	0	0
						}
					}
				}
			}
		}
	}
}
MOTION
Frames: 11
Frame Time: 0.02
2815.0 712.619 -1181.23 -7.0172 54.8445 8.11698 1.42923 0.176491 -0.794784 1.42955 0.226706 -0.781944 1.42642 0.368051 -0.726205 1.42577 0.248745 -0.775215 -13.9405 18.863 2.64979 -14.9584 34.4159 8.89994 -0.0 0.0 -0.0 9.12677 22.5854 15.6778 -5.54352 -26.8735 41.1335 5.0127 -68.0398 3.38482 -19.3452 -1.06725 2.21978 -3.62816 28.565 -8.47196 -0.0 0.0 -0.0 10.8548 19.281 -21.3759 -28.7139 6.8582 -62.9068 0.61498 16.9431 -0.091598 47.6513 0.805848 5.86065 -0.25913 -29.3272 -10.0441 0.0 0.0 0.0 -17.7768 33.1082 12.1302 -6.74069 0.218271 1.01088 34.7897 -3.27775 -4.43062 -25.5541 0.0 0.0 -0.0 0.0 -0.0 33.6365 12.5781 -13.5265 -2.4629 -0.0935432 -0.366369 -17.8104 24.2901 -3.19027 -22.7354 0.0 0.0 0.0 0.0 0.0 
2796.8 712.337 -1183.97 -7.3883 55.205 8.70437 1.7168 0.132043 -0.838273 1.71717 0.185115 -0.828173 1.71445 0.33185 -0.781037 1.71366 0.20434 -0.823641 -13.368 18.102 0.735506 -14.2986 34.0481 6.63775 -0.0 0.0 -0.0 8.73068 23.3314 14.9742 -7.63932 -26.8165 41.5857 5.20769 -68.7858 3.56614 -18.8123 -1.02803 2.16393 -3.26769 28.4841 -6.55508 -0.0 0.0 -0.0 10.8776 20.5586 -21.3367 -28.9997 5.46606 -63.3816 0.658178 18.0582 -0.104589 47.0233 0.764044 5.79198 -0.280152 -29.3879 -9.95197 0.0 0.0 0.0 -16.4405 34.6976 11.1577 -10.2227 0.284053 1.54107 33.9769 0.706707 -4.31423 -23.7981 0.0 0.0 -0.0 0.0 -0.0 33.2747 12.7113 -13.2727 -4.31593 -0.153483 -0.644426 -14.2336 25.5323 -2.5801 -23.9245 0.0 0.0 0.0 0.0 0.0 
2778.47 716.072 -1188.54 -7.82785 54.5382 8.80341 1.75912 0.278363 -0.801019 1.75941 0.328768 -0.781684 1.75485 0.464234 -0.709655 1.75432 0.346335 -0.774062 -12.6463 18.716 1.94593 -13.4793 34.3929 7.72998 -0.0 0.0 -0.0 8.33799 24.0372 14.3003 -7.35979 -25.1278 42.9541 4.85821 -67.4123 3.24185 -18.205 -0.983976 2.09984 -3.0379 28.4284 -5.33865 -0.0 0.0 -0.0 11.3891 21.7978 -22.3994 -28.7528 4.8069 -63.2372 0.661758 18.15 -0.105702 48.1476 0.839414 5.91459 0.259948 -29.1085 -12.8122 0.0 0.0 0.0 -16.1197 34.6568 10.8652 -11.4586 0.299636 1.73006 30.7378 3.84602 -3.96936 -22.3801 0.0 0.0 -0.0 0.0 -0.0 32.141 12.7374 -12.8937 -4.8103 -0.167951 -0.718917 -10.7336 26.9659 -1.97185 -22.0425 0.0 0.0 0.0 0.0 0.0 
2764.27 718.451 -1192.31 -7.88075 54.7583 8.72461 1.71619 0.358837 -0.921967 1.71657 0.416774 -0.897267 1.70993 0.572273 -0.807032 1.70929 0.437641 -0.887277 -10.5124 18.768 0.804207 -11.0574 34.93 5.91655 -0.0 0.0 -0.0 8.05872 24.3493 13.8574 -8.5979 -25.3076 43.7986 4.58277 -66.2047 2.98866 -18.1593 -0.98069 2.09501 -2.81196 27.7676 -4.47238 -0.0 0.0 -0.0 11.7143 23.0959 -23.0267 -28.3557 4.14984 -63.4779 0.651311 17.8819 -0.102471 48.0405 0.832128 5.90297 0.318392 -28.8162 -13.0398 0.0 0.0 0.0 -15.628 34.4821 9.88733 -13.3518 0.315593 2.02009 27.3462 7.36402 -3.59832 -21.768 0.0 0.0 -0.0 0.0 -0.0 31.5557 13.1659 -12.2012 -5.89539 -0.197448 -0.882827 -7.57755 28.1671 -1.40629 -22.2112 0.0 0.0 0.0 0.0 0.0 
2747.02 724.365 -1196.73 -7.27812 55.0117 7.76004 1.61699 0.354259 -0.731938 1.6172 0.400115 -0.707914 1.61218 0.522673 -0.622936 1.61188 0.417735 -0.697661 -12.448 18.8992 2.40465 -13.2469 34.4303 8.15001 -0.0 0.0 -0.0 7.84958 24.739 13.5101 -9.24317 -24.6633 44.5154 4.16282 -64.1105 2.60751 -18.2546 -0.987547 2.10509 -2.64874 27.0395 -3.96729 -0.0 0.0 -0.0 12.3144 24.5416 -24.2593 -28.1882 4.31205 -63.6579 0.605272 16.6907 -0.0887896 47.8074 0.816351 5.87764 0.570707 -29.1881 -14.5613 0.0 0.0 0.0 -14.5404 33.9003 8.80639 -15.3807 0.322048 2.3313 22.9793 8.88495 -3.09504 -22.5367 0.0 0.0 -0.0 0.0 -0.0 29.529 13.6296 -11.0319 -5.8653 -0.196672 -0.878275 -6.41515 27.4017 -1.17621 -21.8363 0.0 0.0 0.0 0.0 0.0 
2730.9 724.312 -1201.88 -6.70619 54.7959 6.93458 1.54907 0.481416 -0.556426 1.54909 0.515847 -0.524665 1.54428 0.603487 -0.42092 1.54443 0.529437 -0.510947 -12.584 19.0071 2.80588 -13.3949 34.4068 8.60834 -0.0 0.0 -0.0 7.60751 25.2408 13.1086 -9.67326 -24.3619 44.53 3.89464 -62.5838 2.3678 -18.3254 -0.992659 2.11259 -2.59378 27.3894 -3.48063 -0.0 0.0 -0.0 12.5667 25.3849 -24.7484 -27.4342 4.39615 -63.521 0.674295 18.4707 -0.10964 48.2664 0.847516 5.92746 0.79154 -29.2161 -15.8047 0.0 0.0 0.0 -14.122 33.815 7.57683 -17.5017 0.317012 2.65666 20.0907 11.4211 -2.74968 -23.04 0.0 0.0 -0.0 0.0 -0.0 28.02 13.9037 -10.5159 -6.24233 -0.206223 -0.935346 -4.20791 28.0201 -0.773929 -21.0775 0.0 0.0 0.0 0.0 0.0 
2718.24 725.574 -1208.03 -5.59126 54.7127 5.87976 1.38538 0.42225 -0.438467 1.38538 0.449295 -0.41071 1.38209 0.518028 -0.319679 1.38225 0.46104 -0.39748 -13.7934 19.0232 3.696 -14.7417 34.0751 9.86265 -0.0 0.0 -0.0 7.27117 24.5889 12.7141 -11.2133 -23.6723 44.2398 3.72437 -61.5251 2.21737 -18.8316 -1.02944 2.16595 -2.65327 25.6345 -4.73764 -0.0 0.0 -0.0 12.8382 25.9102 -25.3142 -27.0779 5.52285 -63.101 0.731415 19.9165 -0.128421 48.7634 0.881711 5.98111 0.859451 -29.3027 -16.2115 0.0 0.0 0.0 -13.4799 31.7743 6.83571 -21.5133 0.274585 3.27061 17.9281 12.5489 -2.48101 -23.3288 0.0 0.0 -0.0 0.0 -0.0 27.1855 13.5924 -11.254 -6.91766 -0.22239 -1.03772 -4.68367 25.2062 -0.833 -21.0262 0.0 0.0 0.0 0.0 0.0 
2696.27 725.497 -1217.18 -4.92663 54.6207 5.35404 1.23456 0.400088 -0.373273 1.23454 0.423029 -0.347058 1.23192 0.481032 -0.260788 1.23209 0.433809 -0.333486 -15.1422 19.5072 4.48064 -16.3223 34.7442 11.2681 -0.0 0.0 -0.0 7.03854 24.7866 12.3678 -12.7461 -21.7573 44.1502 3.5758 -60.5382 2.08739 -19.7234 -1.0954 2.2592 -2.34466 21.8011 -4.96153 -0.0 0.0 -0.0 13.1189 26.3994 -25.9043 -27.4346 8.14173 -62.6889 0.757417 20.5662 -0.137417 49.0732 0.903265 6.01441 0.572834 -29.104 -14.5471 0.0 0.0 0.0 -12.6383 29.9945 5.80623 -25.0803 0.200852 3.81293 17.6053 12.1552 -2.43818 -23.0248 0.0 0.0 -0.0 0.0 -0.0 25.0779 13.412 -11.358 -7.67149 -0.23901 -1.15221 -1.64817 22.6265 -0.28277 -19.9506 0.0 0.0 0.0 0.0 0.0 
2682.97 729.482 -1221.42 -4.20222 54.7015 4.65631 1.20575 0.241124 -0.337321 1.20578 0.2621 -0.321294 1.20428 0.318262 -0.265774 1.20428 0.272294 -0.312702 -14.5224 19.9273 4.64741 -15.6501 35.3577 11.363 -0.0 0.0 -0.0 6.93842 24.615 12.2455 -15.1189 -19.9931 44.0766 3.3188 -58.676 1.86568 -22.8347 -1.33676 2.57629 -2.29361 18.3318 -6.4194 -0.0 0.0 -0.0 13.3522 25.2225 -26.5834 -26.6138 7.76486 -61.5233 0.807644 21.8054 -0.15557 49.5368 0.935851 6.06403 0.521996 -29.1345 -14.2734 0.0 0.0 0.0 -11.9447 28.389 5.09452 -26.0733 0.17433 3.963 16.0638 12.5742 -2.24026 -24.0718 0.0 0.0 -0.0 0.0 -0.0 23.0324 12.1085 -10.5386 -7.96107 -0.244993 -1.19624 2.2699 22.0921 0.382973 -22.0071 0.0 0.0 0.0 0.0 0.0 
2666.73 725.851 -1228.94 -2.95267 54.2239 3.77864 1.20621 0.245721 -0.296281 1.20622 0.264076 -0.280045 1.2049 0.312378 -0.224903 1.20493 0.272939 -0.271414 -16.5917 19.6762 5.23757 -17.9824 34.8566 12.5712 -0.0 0.0 -0.0 6.75244 24.8418 11.9647 -15.9958 -18.2213 44.32 3.23598 -58.03 1.79517 -22.4515 -1.3061 2.53794 -2.28069 15.1048 -7.96917 -0.0 0.0 -0.0 13.5971 25.8957 -27.0747 -25.7835 7.63296 -62.266 0.775409 21.0125 -0.143803 48.878 0.889663 5.99344 -0.0471552 -26.7939 -10.3044 0.0 0.0 0.0 -11.9911 27.3441 4.5178 -30.7257 0.0155851 4.65918 18.6475 12.5267 -2.57257 -23.4724 0.0 0.0 -0.0 0.0 -0.0 20.9166 11.085 -11.1696 -9.03061 -0.265162 -1.35912 7.26992 22.3963 1.20938 -22.5588 0.0 0.0 0.0 0.0 0.0 
2643.92 727.691 -1234.27 0.195148 52.992 0.456929 1.256 0.33021 -0.369674 1.25601 0.353064 -0.347913 1.25382 0.412386 -0.275018 1.2539 0.363777 -0.336696 -19.6212 20.5756 5.74064 -21.7431 36.7233 14.7294 -0.0 0.0 -0.0 6.54871 24.9205 11.6756 -19.2154 -15.9277 45.2761 3.16515 -57.4583 1.73527 -25.2399 -1.53498 2.81227 -1.8003 10.8105 -7.02409 -0.0 0.0 -0.0 13.5211 24.8017 -27.0238 -26.0404 9.60229 -61.3609 0.785009 21.2495 -0.147264 49.3116 0.919973 6.03996 -0.339655 -25.9729 -8.35495 0.0 0.0 0.0 -9.83688 25.5619 2.38219 -41.5235 -0.566526 6.21022 19.5144 10.1568 -2.67395 -23.4969 0.0 0.0 -0.0 0.0 -0.0 14.2926 11.5243 -9.29824 -3.97268 -0.14306 -0.59278 9.89994 25.7993 1.69134 -23.2059 0.0 0.0 0.0 0.0 0.0 
